<?xml version="1.0" ?><svg height="100" id="svg8" version="1.1" viewBox="0 0 31.75 31.75" width="100" xmlns="http://www.w3.org/2000/svg" xmlns:cc="http://creativecommons.org/ns#" xmlns:dc="http://purl.org/dc/elements/1.1/" xmlns:rdf="http://www.w3.org/1999/02/22-rdf-syntax-ns#" xmlns:svg="http://www.w3.org/2000/svg"><defs id="defs2"><pattern height="6" id="EMFhbasepattern" patternUnits="userSpaceOnUse" width="6" x="0" y="0"/><pattern height="6" id="EMFhbasepattern-3" patternUnits="userSpaceOnUse" width="6" x="0" y="0"/><pattern height="6" id="EMFhbasepattern-4" patternUnits="userSpaceOnUse" width="6" x="0" y="0"/><pattern height="6" id="EMFhbasepattern-6" patternUnits="userSpaceOnUse" width="6" x="0" y="0"/><pattern height="6" id="EMFhbasepattern-9" patternUnits="userSpaceOnUse" width="6" x="0" y="0"/><pattern height="6" id="EMFhbasepattern-2" patternUnits="userSpaceOnUse" width="6" x="0" y="0"/><pattern height="6" id="EMFhbasepattern-5" patternUnits="userSpaceOnUse" width="6" x="0" y="0"/><pattern height="6" id="EMFhbasepattern-95" patternUnits="userSpaceOnUse" width="6" x="0" y="0"/><pattern height="6" id="EMFhbasepattern-3-2" patternUnits="userSpaceOnUse" width="6" x="0" y="0"/><pattern height="6" id="EMFhbasepattern-4-5" patternUnits="userSpaceOnUse" width="6" x="0" y="0"/><pattern height="6" id="EMFhbasepattern-6-1" patternUnits="userSpaceOnUse" width="6" x="0" y="0"/><pattern height="6" id="EMFhbasepattern-9-3" patternUnits="userSpaceOnUse" width="6" x="0" y="0"/></defs><g id="layer1" transform="translate(0,-270.54165)"><g id="g4767" transform="matrix(0.97028767,0,0,0.97028767,-35.342833,4.5927461)"><path d="m 52.462891,70.707031 c -0.34573,0.250296 -0.672862,0.502207 -1.013672,0.757813 l -1.439453,1.083984 c 1.8763,0.0044 3.43164,1.560174 3.43164,3.4375 0,2.017827 -1.559603,3.556641 -3.439453,3.556641 -3.28659,0 -5.953125,2.634174 -5.953125,5.83789 0,3.164475 2.602828,5.77446 5.833984,5.837891 a 1.2018897,1.2018897 0 0 0 0.119141,0.0059 1.2018897,1.2018897 0 0 0 1.201172,-1.201171 1.2018897,1.2018897 0 0 0 -1.201172,-1.201172 1.2018897,1.2018897 0 0 0 -0.0332,0 c -2.001004,-0.01764 -3.521484,-1.572301 -3.521484,-3.441407 0,-1.879937 1.536757,-3.439453 3.554687,-3.439453 3.20367,0 5.837891,-2.668558 5.837891,-5.955078 0,-2.314741 -1.405483,-4.33793 -3.376953,-5.279297 z" id="path4720" style="color:#000000;font-style:normal;font-variant:normal;font-weight:normal;font-stretch:normal;font-size:medium;line-height:normal;font-family:sans-serif;font-variant-ligatures:normal;font-variant-position:normal;font-variant-caps:normal;font-variant-numeric:normal;font-variant-alternates:normal;font-feature-settings:normal;text-indent:0;text-align:start;text-decoration:none;text-decoration-line:none;text-decoration-style:solid;text-decoration-color:#000000;letter-spacing:normal;word-spacing:normal;text-transform:none;writing-mode:lr-tb;direction:ltr;text-orientation:mixed;dominant-baseline:auto;baseline-shift:baseline;text-anchor:start;white-space:normal;shape-padding:0;clip-rule:nonzero;display:inline;overflow:visible;visibility:visible;opacity:1;isolation:auto;mix-blend-mode:normal;color-interpolation:sRGB;color-interpolation-filters:linearRGB;solid-color:#000000;solid-opacity:1;vector-effect:none;fill:#2d3e50;fill-opacity:1;fill-rule:nonzero;stroke:none;stroke-width:2.40377951;stroke-linecap:butt;stroke-linejoin:miter;stroke-miterlimit:4;stroke-dasharray:none;stroke-dashoffset:0;stroke-opacity:1;color-rendering:auto;image-rendering:auto;shape-rendering:auto;text-rendering:auto;enable-background:accumulate" transform="matrix(0.3175,0,0,0.3175,36.911236,274.57905)"/><path d="m 149.82812,21.498047 c -0.35873,0.0092 -0.71492,0.02744 -1.07031,0.05469 -2.05519,0.157481 -4.04514,0.601828 -5.92383,1.335938 -7.51475,2.936472 -12.81445,10.664085 -12.81445,21.78125 0,11.117102 5.27713,18.585492 12.16211,24.226562 6.88498,5.64104 15.34549,9.825598 22.625,15.285157 l 1.45117,1.089843 1.44727,-1.089843 c 7.27951,-5.459559 15.74588,-9.644117 22.63086,-15.285157 6.88497,-5.64107 12.15625,-13.10946 12.15625,-24.226562 0,-11.117165 -5.2997,-18.844778 -12.81446,-21.78125 -7.07789,-2.765732 -15.71277,-1.265333 -23.42578,3.949219 -5.31048,-3.589075 -11.04278,-5.477166 -16.42383,-5.339844 z m 0.54493,4.833984 c 1.23935,-0.0063 2.51852,0.112911 3.82226,0.363281 3.47664,0.667654 7.12335,2.262938 10.61133,4.878907 l 1.45117,1.08789 1.44727,-1.08789 c 6.97596,-5.231937 14.57682,-6.385925 20.21289,-4.183594 5.63607,2.202331 9.73828,7.620305 9.73828,17.279297 0,9.658866 -4.12477,15.344752 -10.39063,20.478516 -5.86222,4.803086 -13.69009,8.924726 -21.01367,14.179687 -7.32228,-5.253417 -15.14676,-9.377577 -21.00781,-14.179687 -6.26585,-5.133764 -10.38281,-10.81965 -10.38281,-20.478516 0,-9.658992 4.0944,-15.076966 9.73047,-17.279297 1.76127,-0.688228 3.71566,-1.048171 5.78125,-1.058594 z m 34.66601,2.431641 a 1.2020099,1.2020099 0 0 0 -0.46094,2.318359 c 3.15185,1.32167 5.64279,3.698437 7.08008,7.394531 a 1.2021735,1.2021735 0 1 0 2.24024,-0.873046 c -1.65687,-4.260756 -4.69081,-7.184864 -8.39063,-8.736328 a 1.2020099,1.2020099 0 0 0 -0.46875,-0.103516 z" id="path4722" style="color:#000000;font-style:normal;font-variant:normal;font-weight:normal;font-stretch:normal;font-size:medium;line-height:normal;font-family:sans-serif;font-variant-ligatures:normal;font-variant-position:normal;font-variant-caps:normal;font-variant-numeric:normal;font-variant-alternates:normal;font-feature-settings:normal;text-indent:0;text-align:start;text-decoration:none;text-decoration-line:none;text-decoration-style:solid;text-decoration-color:#000000;letter-spacing:normal;word-spacing:normal;text-transform:none;writing-mode:lr-tb;direction:ltr;text-orientation:mixed;dominant-baseline:auto;baseline-shift:baseline;text-anchor:start;white-space:normal;shape-padding:0;clip-rule:nonzero;display:inline;overflow:visible;visibility:visible;opacity:1;isolation:auto;mix-blend-mode:normal;color-interpolation:sRGB;color-interpolation-filters:linearRGB;solid-color:#000000;solid-opacity:1;vector-effect:none;fill:#e64c66;fill-opacity:1;fill-rule:nonzero;stroke:none;stroke-width:4.83779526;stroke-linecap:butt;stroke-linejoin:miter;stroke-miterlimit:4;stroke-dasharray:none;stroke-dashoffset:0;stroke-opacity:1;color-rendering:auto;image-rendering:auto;shape-rendering:auto;text-rendering:auto;enable-background:accumulate" transform="matrix(0.3175,0,0,0.3175,0,270.54165)"/></g></g></svg>